<?xml version="1.0" encoding="UTF-8"?>
<svg xmlns="http://www.w3.org/2000/svg" xmlns:xlink="http://www.w3.org/1999/xlink" width="2834.88" height="2834.88" viewBox="0 0 2834.88 2834.88">
<path fill-rule="evenodd" fill="rgb(0%, 37.988281%, 61.521912%)" fill-opacity="1" d="M 1319.828125 1915.109375 C 1121.660156 1798.621094 851.871094 1745.519531 494.941406 1756.339844 C 445.398438 1876.007812 407.378906 1960.222656 406.449219 1967.359375 C 757.777344 1857.058594 1084.25 1873.773438 1302.679688 1945.742188 C 1314.351562 2035.707031 1364.820312 2029.980469 1417.320312 2031.777344 C 1460.359375 2029.492188 1510.371094 2044.617188 1531.96875 1945.742188 C 1750.398438 1873.773438 2076.871094 1857.058594 2428.199219 1967.359375 C 2428.199219 1967.359375 2401.28125 1897.113281 2347.511719 1756.570312 C 1990.550781 1745.761719 1712.988281 1798.621094 1514.820312 1915.109375 C 1507.328125 1941.144531 1489.011719 1959.273438 1466.46875 1969.4375 C 1448.320312 1977.605469 1388.871094 1978.195312 1370.449219 1970.414062 C 1346.890625 1960.476562 1327.578125 1942.019531 1319.828125 1915.109375 "/>
<path fill-rule="evenodd" fill="rgb(45.701599%, 76.756287%, 100%)" fill-opacity="1" d="M 698.644531 1530.441406 C 720.734375 1499.351562 722.890625 1497.191406 765.359375 1441.53125 C 1051.339844 1475.21875 1276.398438 1670.960938 1360.511719 1857.597656 C 1209.359375 1607.058594 914.871094 1512.988281 698.644531 1530.441406 Z M 2136 1530.441406 C 1919.75 1512.988281 1625.28125 1607.058594 1474.128906 1857.597656 C 1558.238281 1670.960938 1783.308594 1475.21875 2069.28125 1441.53125 C 2111.761719 1497.191406 2113.910156 1499.351562 2136 1530.441406 Z M 2281.871094 1686.46875 C 2017.101562 1625.699219 1672.941406 1700.570312 1470.339844 1901.167969 C 1630.539062 1688.171875 1932.640625 1576.21875 2210.5 1568.320312 C 2255.179688 1641.460938 2268.96875 1664.160156 2281.871094 1686.46875 Z M 552.777344 1686.46875 C 565.671875 1664.160156 579.472656 1641.460938 624.144531 1568.320312 C 902.003906 1576.21875 1204.101562 1688.171875 1364.308594 1901.167969 C 1161.710938 1700.570312 817.546875 1625.699219 552.777344 1686.46875 "/>
<path fill-rule="evenodd" fill="rgb(26.097107%, 57.617188%, 81.25%)" fill-opacity="1" d="M 1417.320312 1564.980469 C 1518.761719 1476.109375 1623.289062 1449 1728.191406 1429.261719 C 1577.878906 1499.351562 1448.441406 1655.121094 1417.96875 1826.441406 L 1416.671875 1826.441406 C 1386.210938 1655.121094 1256.769531 1499.351562 1106.460938 1429.261719 C 1211.359375 1449 1315.878906 1476.109375 1417.320312 1564.980469 Z M 1417.320312 1318.140625 C 1461.851562 1318.140625 1498 1354.289062 1498 1398.808594 C 1498 1443.339844 1461.851562 1479.488281 1417.320312 1479.488281 C 1372.800781 1479.488281 1336.648438 1443.339844 1336.648438 1398.808594 C 1336.648438 1354.289062 1372.800781 1318.140625 1417.320312 1318.140625 "/>
<path fill-rule="evenodd" fill="rgb(95.701599%, 63.084412%, 22.410583%)" fill-opacity="1" d="M 1390.660156 1065.320312 L 1421.421875 803.171875 L 1447.359375 1065.460938 C 1437.691406 1064.660156 1427.941406 1064.210938 1418.070312 1064.210938 C 1408.859375 1064.210938 1399.710938 1064.578125 1390.660156 1065.320312 Z M 1418.070312 1080.140625 C 1596.539062 1080.140625 1742.128906 1220.679688 1750.289062 1397.109375 C 1731.25 1230.519531 1589.800781 1101.089844 1418.070312 1101.089844 C 1246.378906 1101.089844 1104.929688 1230.519531 1085.878906 1397.109375 C 1094.050781 1220.679688 1239.628906 1080.140625 1418.070312 1080.140625 Z M 1451.578125 1065.851562 L 1476.101562 966.578125 L 1473.351562 1068.660156 C 1466.179688 1067.5 1458.921875 1066.558594 1451.578125 1065.851562 Z M 1480.121094 1069.820312 L 1577.640625 824.601562 L 1534.808594 1084.589844 C 1517.199219 1078.210938 1498.921875 1073.25 1480.121094 1069.820312 Z M 1538.828125 1086.089844 L 1588.148438 996.601562 L 1559.101562 1094.449219 C 1552.460938 1091.449219 1545.691406 1088.671875 1538.828125 1086.089844 Z M 1565.328125 1097.351562 L 1722.96875 885.769531 L 1614.289062 1125.859375 C 1598.871094 1115.089844 1582.480469 1105.511719 1565.328125 1097.351562 Z M 1617.78125 1128.328125 L 1688.640625 1054.601562 L 1635.210938 1141.679688 C 1629.539062 1137.058594 1623.730469 1132.578125 1617.78125 1128.328125 Z M 1640.449219 1146.070312 L 1847.550781 982.429688 L 1680.421875 1186.269531 C 1668.199219 1171.78125 1654.851562 1158.351562 1640.449219 1146.070312 Z M 1683.140625 1189.5 L 1770.679688 1136.628906 L 1696.519531 1206.898438 C 1692.238281 1200.980469 1687.789062 1195.171875 1683.140625 1189.5 Z M 1700.460938 1212.519531 L 1942.851562 1108.058594 L 1728.71875 1261.640625 C 1720.640625 1244.441406 1711.179688 1228.019531 1700.460938 1212.519531 Z M 1730.539062 1265.5 L 1828.671875 1237.121094 L 1738.929688 1285.769531 C 1736.320312 1278.898438 1733.539062 1272.160156 1730.539062 1265.5 Z M 1741.308594 1292.230469 L 1999.148438 1236.78125 L 1755.789062 1346.988281 C 1752.449219 1328.171875 1747.570312 1309.859375 1741.308594 1292.230469 Z M 1080.71875 1345.179688 L 835.496094 1230.351562 L 1095.488281 1290.46875 C 1089.109375 1308.070312 1084.148438 1326.359375 1080.71875 1345.179688 Z M 1096.960938 1286.46875 L 1007.5 1237.121094 L 1105.359375 1266.179688 C 1102.351562 1272.839844 1099.570312 1279.589844 1096.960938 1286.46875 Z M 1108.25 1259.941406 L 896.640625 1102.308594 L 1136.761719 1210.988281 C 1125.960938 1226.441406 1116.410156 1242.789062 1108.25 1259.941406 Z M 1139.199219 1207.5 L 1065.5 1136.628906 L 1152.578125 1190.070312 C 1147.929688 1195.738281 1143.480469 1201.550781 1139.199219 1207.5 Z M 1156.980469 1184.851562 L 993.332031 977.71875 L 1197.140625 1144.878906 C 1182.691406 1157.070312 1169.25 1170.449219 1156.980469 1184.851562 Z M 1200.398438 1142.128906 L 1147.53125 1054.601562 L 1217.808594 1128.75 C 1211.851562 1133.03125 1206.039062 1137.488281 1200.398438 1142.128906 Z M 1223.390625 1124.808594 L 1118.960938 882.421875 L 1272.539062 1096.578125 C 1255.339844 1104.660156 1238.898438 1114.101562 1223.390625 1124.808594 Z M 1276.398438 1094.769531 L 1248.019531 996.601562 L 1296.671875 1086.351562 C 1289.808594 1088.960938 1283.03125 1091.730469 1276.398438 1094.769531 Z M 1303.101562 1083.988281 L 1264.980469 822.898438 L 1357.890625 1069.480469 C 1339.039062 1072.828125 1320.761719 1077.699219 1303.101562 1083.988281 Z M 1362.089844 1068.769531 L 1360.078125 966.578125 L 1383.859375 1065.910156 C 1376.519531 1066.648438 1369.261719 1067.609375 1362.089844 1068.769531 "/>
</svg>
